<svg id="图层_1" data-name="图层 1" xmlns="http://www.w3.org/2000/svg" viewBox="0 0 1001.45 267.55"><defs><style>.cls-1{fill:#ff3f6a;stroke:#1fa3ff;stroke-miterlimit:10;stroke-width:5px;}</style></defs><path class="cls-1" d="M64.77,109.06A4.83,4.83,0,0,1,62,104.74c0-3.12,1.8-4.68,4.32-5.64a27.6,27.6,0,0,1,9.24-1.2h7.32a55.58,55.58,0,0,0,7-.24c1.92-2.16,2.88-6.48,2.88-8.64,0-6.36-4.08-13.32-8.4-20.4l-1.08-1.8a87.24,87.24,0,0,1-4.44-7.68C72,69.46,64.53,80,59,88.3L47.37,105.7a2.65,2.65,0,0,1-2,1.2,2.39,2.39,0,0,1-2.4-2.28,3.18,3.18,0,0,1,.6-1.68L55.77,84.7c10.68-16,16.08-23.52,20.76-30.84a26.69,26.69,0,0,1-1.8-9.6,20.93,20.93,0,0,1,1.32-7.56,24.56,24.56,0,0,1,5.52-8.88,9.91,9.91,0,0,1,7.08-3.12,5.86,5.86,0,0,1,5.16,2.64,6.64,6.64,0,0,1,1,3.72,12.38,12.38,0,0,1-2,6.36c-2.88,4.8-6.84,11-10.92,17.16a103.79,103.79,0,0,0,5.4,9.72l1.08,1.8c4.44,7.32,9.24,15.48,9.24,23a16.77,16.77,0,0,1-1.32,6.72,28.58,28.58,0,0,0,7.32-5.52c1.68-1.68,3.48-3.48,5.4-5.76a2.44,2.44,0,0,1,1.8-.72,2.16,2.16,0,0,1,2.16,2.28,2.31,2.31,0,0,1-.48,1.44,78.4,78.4,0,0,1-6.84,7.08c-4.56,4.2-8.52,6.48-13.2,7.32-5,5.4-14,8.4-20.88,8.4A14.94,14.94,0,0,1,64.77,109.06Zm10.44-6.48a44.36,44.36,0,0,0-5.52.24c-1.68.24-3,.84-3,1.8s3.84,1.08,4.68,1.08a28.22,28.22,0,0,0,12.48-3.12Zm9.12-70.8a19.5,19.5,0,0,0-3.84,6.6,17,17,0,0,0-1.08,5.88,20.34,20.34,0,0,0,.48,4.56c3.36-5,6.36-9.84,8.88-13.92a10,10,0,0,0,1.32-3.72,1.59,1.59,0,0,0-1.56-1.8C87.21,29.38,85.77,30.1,84.33,31.78Z" transform="translate(-35.87 -22.2)"/><path class="cls-1" d="M106.53,95.26c0-8.16,5.28-20.28,15.48-27a6.65,6.65,0,0,1,1.56-.6,2.47,2.47,0,0,1,2.4,2.28,2.68,2.68,0,0,1-1.08,2c-8.64,5.76-13.68,16.32-13.68,23.28,0,3.24,1.44,6.24,4.44,6.24,3.72,0,7.8-3.36,10.44-5.88-2.4-2.28-3.84-6.12-3.84-10.68,0-6.12,4-18.24,11.4-18.24,5,0,6.12,5.88,6.12,9.36,0,6.72-2.88,12.6-6.24,17.76,2.76,0,5.52-1.32,8.76-4.2a49.73,49.73,0,0,0,4.92-5,2.65,2.65,0,0,1,1.8-.72,2.2,2.2,0,0,1,2.16,2.4,2.28,2.28,0,0,1-.6,1.56,54.38,54.38,0,0,1-5.88,5.88c-3.36,2.88-7.08,4.8-10.92,4.8a10.62,10.62,0,0,1-3.48-.48c-4,4.32-9.12,8.16-14.64,8.16C109.29,106.18,106.53,100.54,106.53,95.26Zm20.4-10.32c0,1.8.36,5.16,2.16,7,3.12-4.56,6-10.56,6-15.72,0-1.44-.12-4.8-1.44-4.8C129.69,71.38,126.93,80.38,126.93,84.94Z" transform="translate(-35.87 -22.2)"/><path class="cls-1" d="M178.05,103.66c0-2,3.72-8.4,5-10.8,1.92-5.64,3.72-12.24,3.72-16.8,0-1.8-.12-4.2-1.68-4.2-7.32,0-20.16,22.56-25,32.16a3.1,3.1,0,0,1-2.4,1.8,2.27,2.27,0,0,1-2.28-2.28c0-1.44.84-3.12,2.16-4.92,3.84-7.2,9.12-17.52,9.12-23.76,0-1.32-.24-2.76-1.32-2.76a3.75,3.75,0,0,0-2.4,1.32c-2.52,2.28-7.56,8.4-10.44,11.88l-2.16,2.52a2.1,2.1,0,0,1-1.68.84,2.39,2.39,0,0,1-2.4-2.28,2.18,2.18,0,0,1,.6-1.68c1.44-1.92,9.24-11.4,12.84-14.64a8.9,8.9,0,0,1,5.76-2.52c4.2,0,5.88,3.84,5.88,7.2a17.9,17.9,0,0,1-.24,2.52c4.56-5.76,9.6-10.08,13.92-10.08,4.92,0,6.36,5,6.36,8.76a27.84,27.84,0,0,1-.48,5.28A51.23,51.23,0,0,1,201,70.9c3.12-2.28,6.24-3.6,9.48-3.6,4,0,6,2.52,6,6s-1.92,8.28-4.2,13.56l-.72,1.68c-1.92,4.44-4.08,9.72-4.08,12.24,0,.36,0,.6.24.6,1.44,0,4.32-1.92,8.4-5.64,2.88-2.76,6.48-6.48,10.56-11.16a2.55,2.55,0,0,1,1.8-.84A2.08,2.08,0,0,1,230.73,86a3,3,0,0,1-.72,1.8,151,151,0,0,1-12.12,12.36c-4.56,4-7.92,5.88-10.2,5.88-3.36,0-4.92-2.28-4.92-5.28,0-3.48,2-8.52,4.56-14.16,2-4.44,4.44-10.32,4.44-13.32A1.15,1.15,0,0,0,210.45,72c-1.92,0-4.08,1.08-6.48,2.88-5.76,4.44-12.12,13.08-16.44,19.68-2,5.64-4.32,10.32-5.4,11.16a3.4,3.4,0,0,1-1.56.48A2.39,2.39,0,0,1,178.05,103.66Z" transform="translate(-35.87 -22.2)"/><path class="cls-1" d="M224,95.5c0-10.44,9.84-28.32,20.88-28.32,4.2,0,7,2.4,7,6.24,0,2.4-1.44,5-4.08,7.56-3.6,3.36-9.72,6.6-18.12,8.52a23.94,23.94,0,0,0-1,6.24c0,3.6,1.56,6,5,6,2.52,0,6.24-1.32,10.44-4.08a76.36,76.36,0,0,0,14.76-13.08,2.65,2.65,0,0,1,1.8-.72,2.26,2.26,0,0,1,2.16,2.4,3.54,3.54,0,0,1-.6,1.56,76,76,0,0,1-16,14.16c-4.56,2.88-8.76,4.44-12.36,4.44C226.77,106.42,224,101.26,224,95.5Zm7.68-11.4c6.48-1.68,10.68-4,13-6.24,1.8-1.68,2.52-3.36,2.52-4.56s-1.44-1.44-2.28-1.44C239.49,71.86,234.21,78.94,231.69,84.1Z" transform="translate(-35.87 -22.2)"/><path class="cls-1" d="M258.21,86.26a2.37,2.37,0,0,1,.72-1.68,69.19,69.19,0,0,0,9.24-12.12h-4.44a2.41,2.41,0,0,1-2.4-2.4,2.31,2.31,0,0,1,2.4-2.28h7s1.32-2.64,1.8-3.84c4.92-12.6,6.48-15.6,6.48-15.6a2.37,2.37,0,0,1,2.16-1.44,2.2,2.2,0,0,1,2.28,2.28,3.87,3.87,0,0,1-.24,1.44L276,67.78h11a2.31,2.31,0,0,1,2.4,2.28,2.41,2.41,0,0,1-2.4,2.4H274.17c-2.76,7.08-6.6,18.12-6.6,24.24,0,1.92.48,4.8,2.4,4.8,1.56,0,4.44-2.28,7.92-5.52s7.44-7.56,10.8-11.4a2.37,2.37,0,0,1,1.68-.72,2.47,2.47,0,0,1,2.4,2.28,3,3,0,0,1-.73,1.68,129.4,129.4,0,0,1-11.27,12.12c-3.84,3.48-7.8,6.24-10.8,6.24-4.92,0-7-4.8-7-9.36a45.45,45.45,0,0,1,1.92-11.88l-2.64,2.88a2.37,2.37,0,0,1-1.68.72A2.31,2.31,0,0,1,258.21,86.26Z" transform="translate(-35.87 -22.2)"/><path class="cls-1" d="M289.29,100.54c0-3.84,2-9.36,4.2-14.28a18.74,18.74,0,0,1-1.56,1.56,2.11,2.11,0,0,1-1.56.72,2.47,2.47,0,0,1-2.28-2.4c0-.72,0-1,.84-1.92l13.56-15.84a2.69,2.69,0,0,1,1.8-1,2,2,0,0,1,2.28,2,4,4,0,0,1-.48,2c-.72,1.2-4.08,7.08-7.32,14.16-2.16,5-4.8,11.4-4.8,14.52,0,1,0,1.56.48,1.56a6.21,6.21,0,0,0,3.12-1.56c7.2-6.6,13.8-14,15.23-15.6a2.47,2.47,0,0,1,1.81-.72,2.26,2.26,0,0,1,2.27,2.28,4,4,0,0,1-.84,1.8,201.93,201.93,0,0,1-15.35,15.6,10,10,0,0,1-6.36,2.88C290.61,106.42,289.29,103.3,289.29,100.54Zm22.08-40.32c-2.29,0-3.12-1.68-3.12-3.6a4.15,4.15,0,0,1,4-4.32,3.2,3.2,0,0,1,3.24,3.48C315.45,59.38,312.92,60.22,311.37,60.22Z" transform="translate(-35.87 -22.2)"/><path class="cls-1" d="M320.84,103.3a4.35,4.35,0,0,1,.72-2.16,172.55,172.55,0,0,0,9-19.56c1.32-3.72,2.28-6.72,2.28-8.64,0-.6-.12-1.2-.48-1.2a5.46,5.46,0,0,0-2.52,1.2,62.25,62.25,0,0,0-6.84,7l-6.84,7.8a2.32,2.32,0,0,1-1.8.84,2.39,2.39,0,0,1-2.4-2.28,3,3,0,0,1,.72-1.68c1.8-2.16,4.32-5,6.84-7.8a76.76,76.76,0,0,1,7.56-7.68,9.47,9.47,0,0,1,5.28-2c3.48,0,5.28,3.24,5.28,6a21.26,21.26,0,0,1-1.08,5.76c5.76-6.72,12-11.52,18.36-11.52,3.36,0,5.88,1.92,5.88,5.16,0,4.68-3.6,12.36-5.28,15.72-2.16,4.2-4.68,9.84-4.68,12.48,0,.48.24.72.6.72,1.68,0,4.2-1.68,7.08-4.32,3.72-3.36,8-8,12-12.48a2.69,2.69,0,0,1,1.68-.72,2.17,2.17,0,0,1,2.28,2.4,3.54,3.54,0,0,1-.6,1.56c-4.2,4.68-9.12,10.2-13.8,13.92-3.24,2.64-6.24,4.32-8.76,4.32a5,5,0,0,1-5.16-5.16c0-3.12,2.52-8.88,5.16-14.64,2-4.44,4.8-10.56,4.8-13.2,0-1-.48-1.08-1.2-1.08-5.28,0-11.4,5.64-16.32,11.76a143.9,143.9,0,0,0-11.28,17.52l-1.8,3.24a2.45,2.45,0,0,1-2.28,1.2A2.15,2.15,0,0,1,320.84,103.3Z" transform="translate(-35.87 -22.2)"/><path class="cls-1" d="M359.36,134.5c0-3.12,1.08-7,3.36-11.16,3.12-5.64,8.52-11.76,16.56-17l6.6-4.2,1-1.92c-3.36,3.12-7.68,5.88-12.24,5.88-5.4,0-8.28-4.2-8.28-9,0-5,2.88-11.52,7.92-17.4C383.6,69,392.48,66.94,397.88,66.94a15,15,0,0,1,5.64,1c1,.48,1.56,1,1.56,1.68a3.48,3.48,0,0,1-.36,1.32L392.72,98a79.92,79.92,0,0,0,9.12-5.88,64.91,64.91,0,0,0,8.28-7.56,2.38,2.38,0,0,1,4.08,1.56,3,3,0,0,1-.72,1.68,72.06,72.06,0,0,1-9.12,8.28,123.54,123.54,0,0,1-14.88,9.24c-3.72,8.64-6.72,15.6-9.36,21.12-1.92,4.08-4.56,9.48-7.68,13-1.92,2-4.08,3.48-6.36,3.48C361.4,142.9,359.36,138.82,359.36,134.5Zm21.12-20.16,2-4.68c-8,5.28-12.84,10.68-15.6,15.48a19.58,19.58,0,0,0-2.88,9.24c0,1.8.48,3.72,2,3.72,1.2,0,2.52-1,3.84-2.64,1.92-2.4,3.84-6.24,6-10.8C377.48,121.42,378.92,117.94,380.48,114.34Zm17.4-42.72c-4.44,0-12,1.8-20.16,11.28C373,88.18,371,93.34,371,97.06c0,2.64,1.32,4.32,3.6,4.32A8.32,8.32,0,0,0,377,101c8.4-3.12,17.52-19.08,22.32-29.4Z" transform="translate(-35.87 -22.2)"/><path class="cls-1" d="M438.68,103.66a2.06,2.06,0,0,1,.24-1l13-30.72c6.48-15.36,14.52-34.44,14.52-37.08,0-2.16-2.88-2.52-4.56-2.52a20.92,20.92,0,0,0-9.72,2.88,6.39,6.39,0,0,0-3.24,3.48,2.56,2.56,0,0,1-2.4,1.92,2.49,2.49,0,0,1-2.4-2.4,6.78,6.78,0,0,1,1.32-3c3.6-4.92,12-7.56,16.44-7.56s9.36,1.8,9.36,7.32c0,1.92-1.8,6.12-3.6,10.8,7.8-10.8,16.92-19,25.56-19s12,6.36,12,13.32c0,10.08-7,18.84-13.8,24.12,8.28,1.8,13.32,7.8,13.32,16.44,0,18.84-21.72,26.88-36.6,26.88-7.44,0-14-1.8-17.28-4.92a6.46,6.46,0,0,1-2-4.68c0-1.92.84-5,3.24-5a2.27,2.27,0,0,1,2.28,2.28,2.21,2.21,0,0,1-.48,1.56,2,2,0,0,0-.36,1.2,2.07,2.07,0,0,0,.72,1.44c2.16,2.16,7.44,3.36,13.8,3.36,13.56,0,32-6.6,32-22.08,0-9.12-7-12.24-14-12.24-.6,0-1.32.12-2,.12-.6.24-2.64,1.08-2.28,1-2.76,1.32-5.88,2.52-8.28,2.52-2.16,0-3-1-3-2.16a2.67,2.67,0,0,1,1.08-2c1.8-1.44,6.84-3.12,10.8-3.6C493.4,59,500.48,48.46,500.48,40.06c0-5.28-2.4-8.52-7.44-8.52-13.8,0-31.92,32.76-39.6,48.24l-10.2,24.72a2.14,2.14,0,0,1-2.16,1.44A2.31,2.31,0,0,1,438.68,103.66Z" transform="translate(-35.87 -22.2)"/><path class="cls-1" d="M500.84,103.18a3.08,3.08,0,0,1,.6-1.44l13.8-16.44a37.81,37.81,0,0,1,8.16-12.84c3.12-3.12,6.72-5.28,10.56-5.28,4.2,0,7,2.4,7,6.24,0,2.52-1.44,5.4-4.44,8-3.72,3.24-9.6,6.12-17.76,8a23.94,23.94,0,0,0-1,6.24c0,3.6,1.56,6,5,6,3.24,0,8-2.16,13.68-6.36A84.67,84.67,0,0,0,548,84.58a2.65,2.65,0,0,1,1.8-.72,2.26,2.26,0,0,1,2.16,2.4,3.54,3.54,0,0,1-.6,1.56A78.59,78.59,0,0,1,539,99.46c-5.88,4.44-11.52,7-16,7-7.2,0-10-5.16-10-11.4l-8.28,9.72a2.59,2.59,0,0,1-1.68.72A2.36,2.36,0,0,1,500.84,103.18ZM527.6,74.74a29.81,29.81,0,0,0-6.84,9.36c5.88-1.56,9.84-3.6,12.24-5.64s3.24-3.72,3.24-5.16c0-1.08-1.44-1.44-2.28-1.44A10.25,10.25,0,0,0,527.6,74.74Z" transform="translate(-35.87 -22.2)"/><path class="cls-1" d="M566.72,98.5c-3.6,4.08-8.28,7.8-13.56,7.8-5.76,0-8.64-4.32-8.64-9.84,0-7.68,5-16.2,12.12-22.2,5.4-4.56,12-7.68,18.36-7.68a17.31,17.31,0,0,1,7,1.32c.6.36,1.56,1,1.56,1.8a3.52,3.52,0,0,1-.36,1.2,149.78,149.78,0,0,1-9.36,18c-1.44,3.72-2.4,7.44-2.4,9.6,0,1.68.84,3.12,2.28,3.12s4.2-2,7.08-4.8c4.68-4.32,9.84-10.2,11.64-12.24a2,2,0,0,1,1.8-.84,2.47,2.47,0,0,1,2.28,2.4,3,3,0,0,1-.72,1.68c-5,5.52-9.24,10.08-12.84,13.32s-6.84,5.16-9.24,5.16C568.88,106.3,566.72,102.46,566.72,98.5ZM559,78.22c-5.76,5.28-9.84,12.48-9.84,18.36,0,2.64,1.32,5,3.84,5,6.36,0,13.32-9.24,16.56-14.76a137.28,137.28,0,0,1,7.8-15.36,16.33,16.33,0,0,0-2.52-.24C569.24,71.26,563.6,74.14,559,78.22Z" transform="translate(-35.87 -22.2)"/><path class="cls-1" d="M617.24,105.1a5.81,5.81,0,0,1-1.92-4.56c0-2.16,1.08-5.76,2.28-9.12-1.56,1.92-3.36,4.08-4.92,5.76-4.32,4.56-9.72,8.64-13.8,8.76a5.62,5.62,0,0,1-4.92-2.28,6.94,6.94,0,0,1-1-4c0-3,1.08-6.84,3.24-12.12a2.7,2.7,0,0,1-2,1,2.14,2.14,0,0,1-2.28-2.28,3,3,0,0,1,.72-1.68c6.48-7.32,9.24-11.16,10.92-14.4.72-1.32,1.08-2.52,2.88-2.52a2.39,2.39,0,0,1,2.16,2.52,3.77,3.77,0,0,1-.48,1.44c-.36.72-.84,1.68-1.32,2.88l-4.2,10c-2.64,6.24-4.92,12.12-4.92,15.36q0,1.44,1.08,1.44c2.88,0,7-3.48,10.8-7.56,7-7.56,14-19,17.28-24.84a2.4,2.4,0,0,1,2-1.44,2.2,2.2,0,0,1,2.4,2.16,3.61,3.61,0,0,1-.48,1.68c-1.44,3.24-2.76,7.2-4.32,10.8C624,87.82,620,97.42,620,100.66c0,.6.12,1,.48,1,1.32,0,3.48-1.68,6.24-4.2,3.48-3.24,7.8-8.16,12.24-12.84a2.37,2.37,0,0,1,1.68-.72,2.47,2.47,0,0,1,2.4,2.28,2.69,2.69,0,0,1-.72,1.68c-1.08,1.08-2.52,2.52-4,4.2a93.67,93.67,0,0,1-9.6,10c-2.88,2.52-5.88,4.32-8.4,4.32A4.66,4.66,0,0,1,617.24,105.1Z" transform="translate(-35.87 -22.2)"/><path class="cls-1" d="M638.12,86.26a2.37,2.37,0,0,1,.72-1.68,69.19,69.19,0,0,0,9.24-12.12h-4.44a2.41,2.41,0,0,1-2.4-2.4,2.31,2.31,0,0,1,2.4-2.28h7s1.32-2.64,1.8-3.84c4.92-12.6,6.48-15.6,6.48-15.6A2.37,2.37,0,0,1,661,46.9a2.2,2.2,0,0,1,2.28,2.28,3.87,3.87,0,0,1-.24,1.44l-7.2,17.16h11a2.31,2.31,0,0,1,2.4,2.28,2.41,2.41,0,0,1-2.4,2.4H654.08c-2.76,7.08-6.6,18.12-6.6,24.24,0,1.92.48,4.8,2.4,4.8,1.56,0,4.44-2.28,7.92-5.52s7.44-7.56,10.8-11.4a2.37,2.37,0,0,1,1.68-.72,2.47,2.47,0,0,1,2.4,2.28,3,3,0,0,1-.72,1.68,131.11,131.11,0,0,1-11.28,12.12c-3.84,3.48-7.8,6.24-10.8,6.24-4.92,0-7-4.8-7-9.36a45.45,45.45,0,0,1,1.92-11.88l-2.64,2.88a2.37,2.37,0,0,1-1.68.72A2.31,2.31,0,0,1,638.12,86.26Z" transform="translate(-35.87 -22.2)"/><path class="cls-1" d="M669.2,100.54c0-3.84,2-9.36,4.2-14.28a18.74,18.74,0,0,1-1.56,1.56,2.11,2.11,0,0,1-1.56.72,2.47,2.47,0,0,1-2.28-2.4c0-.72,0-1,.84-1.92L682.4,68.38a2.69,2.69,0,0,1,1.8-1,2,2,0,0,1,2.28,2,4,4,0,0,1-.48,2c-.72,1.2-4.08,7.08-7.32,14.16-2.16,5-4.8,11.4-4.8,14.52,0,1,0,1.56.48,1.56a6.21,6.21,0,0,0,3.12-1.56c7.2-6.6,13.8-14,15.23-15.6a2.47,2.47,0,0,1,1.81-.72,2.26,2.26,0,0,1,2.27,2.28,4.05,4.05,0,0,1-.83,1.8,205.27,205.27,0,0,1-15.36,15.6,10,10,0,0,1-6.36,2.88C670.52,106.42,669.2,103.3,669.2,100.54Zm22.08-40.32c-2.28,0-3.12-1.68-3.12-3.6a4.16,4.16,0,0,1,4-4.32,3.2,3.2,0,0,1,3.24,3.48C695.36,59.38,692.83,60.22,691.28,60.22Z" transform="translate(-35.87 -22.2)"/><path class="cls-1" d="M676,135.46a36.4,36.4,0,0,1,1.56-8.88c3.36-11.76,11.64-29.4,15.48-37.92a3,3,0,0,1-1.32-2,3.54,3.54,0,0,1,.6-1.56c1.32-1.56,3.12-3.24,4.43-4.8,4.8-11.4,7.33-17.4,10.8-26.28,3.12-7.8,6-14.76,8.4-19.92s6.24-7.2,9.48-7.2c5,0,7.44,3.84,7.44,8,0,3-1.2,6.6-3.24,10.44a84.12,84.12,0,0,1-8.16,12.36c-6.84,9.12-15.35,18.6-20.88,25.2-2.51,5.76-4.31,9.6-6.84,15.48a4.6,4.6,0,0,1,1.33-.12c1.32,0,2.51.24,3.84.24a10,10,0,0,0,4.32-.84c4.55-2,9.35-7.32,14.39-13.08a2.44,2.44,0,0,1,1.8-.72,2.2,2.2,0,0,1,2.16,2.4,3.54,3.54,0,0,1-.6,1.56c-6.72,7.56-10.91,12-15.83,14a17.72,17.72,0,0,1-7.08,1.32c-.72,0-1.33-.12-3.12-.12a63.63,63.63,0,0,0,.71,7.32A93.22,93.22,0,0,1,697,124.3c-.12,12.36-7,19-13.08,19C678.68,143.26,676,139.66,676,135.46Zm7.8,3.12c3.36,0,8.4-4,8.52-14.4a91.32,91.32,0,0,0-1.2-13.08l-.72-5a183.7,183.7,0,0,0-8.16,21.24,31.72,31.72,0,0,0-1.56,8.16A2.83,2.83,0,0,0,683.84,138.58ZM720.07,36.1c-2.4,5-5.16,12-8.15,19.56l-5.41,13.56c3.24-4,7.2-9.12,10.32-13.32a103.42,103.42,0,0,0,9.36-14.76c1-2,2-4.32,2-5.88,0-2-.84-3.72-2.76-3.72S721.51,33,720.07,36.1Z" transform="translate(-35.87 -22.2)"/><path class="cls-1" d="M742.39,105.1a5.81,5.81,0,0,1-1.92-4.56c0-2.16,1.08-5.76,2.28-9.12-1.56,1.92-3.36,4.08-4.92,5.76-4.32,4.56-9.72,8.64-13.8,8.76a5.62,5.62,0,0,1-4.92-2.28,6.94,6.94,0,0,1-1-4c0-3,1.08-6.84,3.24-12.12a2.7,2.7,0,0,1-2,1,2.14,2.14,0,0,1-2.28-2.28,3,3,0,0,1,.72-1.68c6.48-7.32,9.24-11.16,10.92-14.4.72-1.32,1.08-2.52,2.88-2.52a2.39,2.39,0,0,1,2.16,2.52,3.77,3.77,0,0,1-.48,1.44c-.36.72-.84,1.68-1.32,2.88l-4.2,10c-2.64,6.24-4.92,12.12-4.92,15.36q0,1.44,1.08,1.44c2.88,0,7-3.48,10.8-7.56,7-7.56,14-19,17.28-24.84a2.4,2.4,0,0,1,2-1.44,2.2,2.2,0,0,1,2.4,2.16,3.61,3.61,0,0,1-.48,1.68c-1.44,3.24-2.76,7.2-4.32,10.8-2.52,5.76-6.48,15.36-6.48,18.6,0,.6.12,1,.48,1,1.32,0,3.48-1.68,6.24-4.2,3.48-3.24,7.8-8.16,12.24-12.84a2.37,2.37,0,0,1,1.68-.72,2.47,2.47,0,0,1,2.4,2.28,2.69,2.69,0,0,1-.72,1.68c-1.08,1.08-2.52,2.52-4,4.2a93.67,93.67,0,0,1-9.6,10c-2.88,2.52-5.88,4.32-8.4,4.32A4.66,4.66,0,0,1,742.39,105.1Z" transform="translate(-35.87 -22.2)"/><path class="cls-1" d="M765.67,98.14a34.91,34.91,0,0,1,1.56-10.2,2.1,2.1,0,0,1-1.44.48,2.31,2.31,0,0,1-2.4-2.28,2.28,2.28,0,0,1,.6-1.56c1.08-1.08,3.84-4.32,7.56-9.12,8.52-23,15-35.28,16.56-38.28,2.52-4.68,4.92-7.2,7-8.64a7.29,7.29,0,0,1,4.2-1.56c3.6,0,5,3.24,5,6.12A11.54,11.54,0,0,1,803,38.5c-4.56,9.36-18,27.72-27.24,39.36-2.16,5.64-5.4,14.52-5.4,20.16,0,1.92.12,3.48,2,3.48,1.2,0,3.36-1.68,5.76-4s4.92-5.28,7.32-7.92c1.8-1.92,3.36-3.72,4.68-5a2.55,2.55,0,0,1,1.8-.84,2.29,2.29,0,0,1,2.28,2.4,2.69,2.69,0,0,1-.72,1.68c-1.2,1.2-2.64,2.88-4.32,4.8-2.64,2.88-5.64,6.24-8.52,8.88-3.12,2.76-6.12,4.8-8.64,4.8C767.35,106.3,765.67,101.86,765.67,98.14Zm31.68-65.52c-1.32,1.08-3,3.12-5.16,6.84C788.47,45.94,785,54.58,782,62c7.08-9.6,13.92-19.68,16.8-25.56a8.08,8.08,0,0,0,.84-3.36c0-.72-.12-1.44-.48-1.44A3.3,3.3,0,0,0,797.35,32.62Z" transform="translate(-35.87 -22.2)"/><path class="cls-1" d="M53.37,244.54c0-3.84,1.92-9.36,4.08-14.28L42.21,249a2.11,2.11,0,0,1-1.56.72,2.47,2.47,0,0,1-2.28-2.4,3.54,3.54,0,0,1,.6-1.56s18.48-22.68,19.8-24.36c1.68-1.92,6.48-7.92,7.68-9,.84-.72,1.32-1.08,2-1.08a2,2,0,0,1,2.28,2,4.71,4.71,0,0,1-.36,1.68c-.72,1.2-4.32,7.56-7.56,14.64-2.16,5-4.8,11.16-4.8,14.52,0,1,0,1.56.48,1.56a6.21,6.21,0,0,0,3.12-1.56c7.2-6.6,13.8-14,15.24-15.6a2.44,2.44,0,0,1,1.8-.72A2.27,2.27,0,0,1,81,230.14a2.83,2.83,0,0,1-.84,1.8,212.12,212.12,0,0,1-15.36,15.6,10,10,0,0,1-6.36,2.88C54.69,250.42,53.37,247.3,53.37,244.54Zm22.08-40.32c-2.28,0-3.12-1.68-3.12-3.6a4.16,4.16,0,0,1,4-4.32,3.2,3.2,0,0,1,3.24,3.48C79.53,203.38,77,204.22,75.45,204.22Z" transform="translate(-35.87 -22.2)"/><path class="cls-1" d="M65.85,243.22a2.46,2.46,0,0,1-.6-1.68,2.55,2.55,0,0,1,.84-1.8A142.06,142.06,0,0,0,77.25,228.1a167.76,167.76,0,0,0,11.64-16c.6-.84,1.92-2.64,3.48-2.64a2.36,2.36,0,0,1,2.16,2.4c0,.84-1,1.92-1.8,3a13.68,13.68,0,0,0-.6,4.92c0,2.76.12,5.28.36,7.8.12,2.28.36,4.56.36,6.84a30.73,30.73,0,0,1-1,8.28,76.53,76.53,0,0,0,8.28-6.6c2.76-2.52,5.28-5.16,7.44-7.56a2.59,2.59,0,0,1,1.68-.72,2.2,2.2,0,0,1,2.28,2.28,2.6,2.6,0,0,1-.6,1.68,91.7,91.7,0,0,1-12.48,12c-5.64,4.32-11.76,7.44-17.76,7.44C74.49,251.26,69.33,247.9,65.85,243.22Zm4.92-1.32a13.28,13.28,0,0,0,10.44,4.56c5.4,0,7-5.16,7-11.76,0-2.76-.24-5.4-.48-7.92-.12-1.44-.24-3.48-.24-4.2-1.92,2.64-4.44,5.76-7.32,9.24Q76.17,236.5,70.77,241.9Z" transform="translate(-35.87 -22.2)"/><path class="cls-1" d="M165.45,249.1a5.81,5.81,0,0,1-1.92-4.56c0-2.16,1.08-5.76,2.28-9.12-1.56,1.92-3.36,4.08-4.92,5.76-4.32,4.56-9.72,8.64-13.8,8.76a5.62,5.62,0,0,1-4.92-2.28,6.94,6.94,0,0,1-1-4c0-2.88,1.2-7.08,3.12-12l-12,15.12c-1.2,1.56-2,2.64-3.24,2.64a2.14,2.14,0,0,1-2.28-2.28,2.53,2.53,0,0,1,.6-1.56l6.72-8.52c7.68-9.72,16.68-21,17.64-22.92.72-1.32,1.08-2.52,2.88-2.52a2.39,2.39,0,0,1,2.16,2.52,3.77,3.77,0,0,1-.48,1.44c-.36.72-.84,1.68-1.32,2.88l-4.2,10c-2.64,6.24-4.92,12.12-4.92,15.36q0,1.44,1.08,1.44c2.88,0,7-3.48,10.8-7.56,7-7.56,14-19,17.28-24.84a2.4,2.4,0,0,1,2-1.44,2.2,2.2,0,0,1,2.4,2.16,3.45,3.45,0,0,1-.6,1.8c-1.08,3.24-2.64,7.08-4.2,10.68-2.52,5.76-6.48,15.36-6.48,18.6,0,.6.12,1,.48,1,1,0,2.64-1.2,4.8-3a160.37,160.37,0,0,0,13.68-14,2.37,2.37,0,0,1,1.68-.72,2.47,2.47,0,0,1,2.4,2.28,2.69,2.69,0,0,1-.72,1.68c-1.08,1.08-2.52,2.52-4,4.2a85.22,85.22,0,0,1-9.72,10.08c-2.88,2.4-5.76,4.2-8.28,4.2A4.66,4.66,0,0,1,165.45,249.1Z" transform="translate(-35.87 -22.2)"/><path class="cls-1" d="M195.21,247.3a4.35,4.35,0,0,1,.72-2.16,172.55,172.55,0,0,0,9-19.56c1.32-3.72,2.28-6.72,2.28-8.64,0-.6-.12-1.2-.48-1.2a5.46,5.46,0,0,0-2.52,1.2,62.25,62.25,0,0,0-6.84,7l-6.84,7.8a2.32,2.32,0,0,1-1.8.84,2.39,2.39,0,0,1-2.4-2.28,3,3,0,0,1,.72-1.68c1.8-2.16,4.32-5,6.84-7.8a76.76,76.76,0,0,1,7.56-7.68,9.47,9.47,0,0,1,5.28-2c3.48,0,5.28,3.24,5.28,6a21.26,21.26,0,0,1-1.08,5.76c5.76-6.72,12-11.52,18.36-11.52,3.36,0,5.88,1.92,5.88,5.16,0,4.68-3.6,12.36-5.28,15.72-2.16,4.2-4.68,9.84-4.68,12.48,0,.48.24.72.6.72,1.68,0,4.2-1.68,7.08-4.32,3.72-3.36,8-8,12-12.48a2.69,2.69,0,0,1,1.68-.72,2.17,2.17,0,0,1,2.28,2.4,3.54,3.54,0,0,1-.6,1.56c-4.2,4.68-9.12,10.2-13.8,13.92-3.24,2.64-6.24,4.32-8.76,4.32a5,5,0,0,1-5.16-5.16c0-3.12,2.52-8.88,5.16-14.64,2-4.44,4.8-10.56,4.8-13.2,0-1-.48-1.08-1.2-1.08-5.28,0-11.4,5.64-16.32,11.76a143.9,143.9,0,0,0-11.28,17.52l-1.8,3.24a2.45,2.45,0,0,1-2.28,1.2A2.15,2.15,0,0,1,195.21,247.3Z" transform="translate(-35.87 -22.2)"/><path class="cls-1" d="M228.21,279.46a36.4,36.4,0,0,1,1.56-8.88c3.36-11.76,11.64-29.4,15.48-37.92a3,3,0,0,1-1.32-2,3.54,3.54,0,0,1,.6-1.56c1.32-1.56,3.12-3.24,4.44-4.8,4.8-11.4,7.32-17.4,10.8-26.28,3.12-7.8,6-14.76,8.4-19.92s6.24-7.2,9.48-7.2c5,0,7.44,3.84,7.44,8,0,3-1.2,6.6-3.24,10.44a84.12,84.12,0,0,1-8.16,12.36c-6.84,9.12-15.36,18.6-20.88,25.2-2.52,5.76-4.32,9.6-6.84,15.48a4.5,4.5,0,0,1,1.32-.12c1.32,0,2.52.24,3.84.24a9.92,9.92,0,0,0,4.32-.84c4.56-2,9.36-7.32,14.4-13.08a2.44,2.44,0,0,1,1.8-.72,2.2,2.2,0,0,1,2.16,2.4,3.54,3.54,0,0,1-.6,1.56c-6.72,7.56-10.92,12-15.84,14a17.69,17.69,0,0,1-7.08,1.32c-.72,0-1.32-.12-3.12-.12a62,62,0,0,0,.72,7.32,94.64,94.64,0,0,1,1.32,13.92c-.12,12.36-7,19-13.08,19C230.85,287.26,228.21,283.66,228.21,279.46Zm7.8,3.12c3.36,0,8.4-4,8.52-14.4a91.32,91.32,0,0,0-1.2-13.08l-.72-5a183.7,183.7,0,0,0-8.16,21.24,31.72,31.72,0,0,0-1.56,8.16A2.83,2.83,0,0,0,236,282.58ZM272.25,180.1c-2.4,5-5.16,12-8.16,19.56l-5.4,13.56c3.24-4,7.2-9.12,10.32-13.32a103.42,103.42,0,0,0,9.36-14.76c1-2,2-4.32,2-5.88,0-2-.84-3.72-2.76-3.72S273.69,177,272.25,180.1Z" transform="translate(-35.87 -22.2)"/><path class="cls-1" d="M267.45,239.26c0-8.16,5.28-20.28,15.48-27a6.65,6.65,0,0,1,1.56-.6,2.47,2.47,0,0,1,2.4,2.28,2.68,2.68,0,0,1-1.08,2c-8.64,5.76-13.68,16.32-13.68,23.28,0,3.24,1.44,6.24,4.44,6.24,3.72,0,7.8-3.36,10.44-5.88-2.4-2.28-3.84-6.12-3.84-10.68,0-6.12,4-18.24,11.4-18.24,5,0,6.12,5.88,6.12,9.36,0,6.72-2.89,12.6-6.24,17.76,2.76,0,5.51-1.32,8.76-4.2a50.81,50.81,0,0,0,4.92-5,2.6,2.6,0,0,1,1.79-.72,2.2,2.2,0,0,1,2.16,2.4,2.28,2.28,0,0,1-.6,1.56,54.38,54.38,0,0,1-5.88,5.88c-3.35,2.88-7.07,4.8-10.91,4.8a10.62,10.62,0,0,1-3.48-.48c-4,4.32-9.12,8.16-14.64,8.16C270.21,250.18,267.45,244.54,267.45,239.26Zm20.4-10.32c0,1.8.36,5.16,2.16,7,3.12-4.56,6-10.56,6-15.72,0-1.44-.12-4.8-1.43-4.8C290.61,215.38,287.85,224.38,287.85,228.94Z" transform="translate(-35.87 -22.2)"/><path class="cls-1" d="M309.68,242.14a34.91,34.91,0,0,1,1.56-10.2,2.1,2.1,0,0,1-1.44.48,2.31,2.31,0,0,1-2.4-2.28,2.28,2.28,0,0,1,.6-1.56c1.08-1.08,3.84-4.32,7.56-9.12,8.52-23,15-35.28,16.56-38.28,2.52-4.68,4.92-7.2,7-8.64a7.29,7.29,0,0,1,4.2-1.56c3.6,0,5,3.24,5,6.12a11.54,11.54,0,0,1-1.32,5.4c-4.56,9.36-18,27.72-27.24,39.36-2.16,5.64-5.4,14.52-5.4,20.16,0,1.92.12,3.48,2,3.48,1.2,0,3.36-1.68,5.76-4s4.92-5.28,7.32-7.92c1.8-1.92,3.36-3.72,4.68-5a2.55,2.55,0,0,1,1.8-.84,2.29,2.29,0,0,1,2.28,2.4,2.69,2.69,0,0,1-.72,1.68c-1.2,1.2-2.64,2.88-4.32,4.8-2.64,2.88-5.64,6.24-8.52,8.88-3.12,2.76-6.12,4.8-8.64,4.8C311.36,250.3,309.68,245.86,309.68,242.14Zm31.68-65.52c-1.32,1.08-3,3.12-5.16,6.84-3.72,6.48-7.2,15.12-10.2,22.56,7.08-9.6,13.92-19.68,16.8-25.56a8.08,8.08,0,0,0,.84-3.36c0-.72-.12-1.44-.48-1.44A3.3,3.3,0,0,0,341.36,176.62Z" transform="translate(-35.87 -22.2)"/><path class="cls-1" d="M330.32,240.58c0-4.44,1.92-9.48,5.64-14.52,9.6-13,19.8-14.76,25-14.76,1.44,0,3.48,0,4.56,1,3.36-7.44,6.72-15.24,9.24-21.24,1.44-3.48,2.64-7.08,3.72-9a2.3,2.3,0,0,1,4.44.84,5.41,5.41,0,0,1-.36,1.32c-1,2.88-2.4,5.76-3.84,9.24l-1.56,3.84c-2.16,5.16-5,12.36-10.44,23.52-5.4,11.52-7.32,19-7.32,22.08,0,1,.12,2.52.6,2.52,1.44,0,4.08-2.16,7.2-5.16,3.6-3.48,7.68-8,11-11.64a2.83,2.83,0,0,1,1.8-.84,2.08,2.08,0,0,1,2.28,2.28,3,3,0,0,1-.72,1.8c-4.8,5.28-8.88,9.6-12.24,12.72-3.84,3.6-6.84,5.52-9.24,5.52-3.84,0-5.28-4.2-5.28-7.08a16.08,16.08,0,0,1,.12-2.4c-4.08,4.68-10,9.6-16,9.6C333.32,250.18,330.32,245.62,330.32,240.58Zm33.24-24.36a23.85,23.85,0,0,0-2.64-.24c-4.08,0-12.84,1.92-21.12,13-3.24,4.32-4.8,8.76-4.8,11.52s1.44,5,4,5c5.76,0,11.64-6.48,14.64-10.92a102.54,102.54,0,0,0,8.4-14.76Z" transform="translate(-35.87 -22.2)"/><path class="cls-1" d="M378.68,244.54c0-3.84,2-9.36,4.2-14.28a18.74,18.74,0,0,1-1.56,1.56,2.11,2.11,0,0,1-1.56.72,2.47,2.47,0,0,1-2.28-2.4c0-.72,0-1,.84-1.92l13.56-15.84a2.69,2.69,0,0,1,1.8-1,2,2,0,0,1,2.28,2,4,4,0,0,1-.48,2c-.72,1.2-4.08,7.08-7.32,14.16-2.16,5-4.8,11.4-4.8,14.52,0,1,0,1.56.48,1.56a6.21,6.21,0,0,0,3.12-1.56c7.2-6.6,13.8-14,15.24-15.6a2.44,2.44,0,0,1,1.8-.72,2.27,2.27,0,0,1,2.28,2.28,4.08,4.08,0,0,1-.84,1.8,205.27,205.27,0,0,1-15.36,15.6,10,10,0,0,1-6.36,2.88C380,250.42,378.68,247.3,378.68,244.54Zm22.08-40.32c-2.28,0-3.12-1.68-3.12-3.6a4.16,4.16,0,0,1,4-4.32,3.2,3.2,0,0,1,3.24,3.48C404.84,203.38,402.32,204.22,400.76,204.22Z" transform="translate(-35.87 -22.2)"/><path class="cls-1" d="M410.24,247.3a4.35,4.35,0,0,1,.72-2.16,172.55,172.55,0,0,0,9-19.56c1.32-3.72,2.28-6.72,2.28-8.64,0-.6-.12-1.2-.48-1.2a5.46,5.46,0,0,0-2.52,1.2,62.25,62.25,0,0,0-6.84,7l-6.84,7.8a2.32,2.32,0,0,1-1.8.84,2.39,2.39,0,0,1-2.4-2.28,3,3,0,0,1,.72-1.68c1.8-2.16,4.32-5,6.84-7.8a76.76,76.76,0,0,1,7.56-7.68,9.47,9.47,0,0,1,5.28-2c3.48,0,5.28,3.24,5.28,6a21.26,21.26,0,0,1-1.08,5.76c5.76-6.72,12-11.52,18.36-11.52,3.36,0,5.88,1.92,5.88,5.16,0,4.68-3.6,12.36-5.28,15.72-2.16,4.2-4.68,9.84-4.68,12.48,0,.48.24.72.6.72,1.68,0,4.2-1.68,7.08-4.32,3.72-3.36,8-8,12-12.48a2.69,2.69,0,0,1,1.68-.72,2.17,2.17,0,0,1,2.28,2.4,3.54,3.54,0,0,1-.6,1.56c-4.2,4.68-9.12,10.2-13.8,13.92-3.24,2.64-6.24,4.32-8.76,4.32a5,5,0,0,1-5.16-5.16c0-3.12,2.52-8.88,5.16-14.64,2-4.44,4.8-10.56,4.8-13.2,0-1-.48-1.08-1.2-1.08-5.28,0-11.4,5.64-16.32,11.76a143.9,143.9,0,0,0-11.28,17.52l-1.8,3.24a2.45,2.45,0,0,1-2.28,1.2A2.15,2.15,0,0,1,410.24,247.3Z" transform="translate(-35.87 -22.2)"/><path class="cls-1" d="M448.76,278.5c0-3.12,1.08-7,3.36-11.16,3.12-5.64,8.52-11.76,16.56-17l6.6-4.2,1-1.92c-3.36,3.12-7.68,5.88-12.24,5.88-5.4,0-8.28-4.2-8.28-9,0-5,2.88-11.52,7.92-17.4,9.36-10.68,18.24-12.72,23.64-12.72a15,15,0,0,1,5.64,1c1,.48,1.56,1,1.56,1.68a3.48,3.48,0,0,1-.36,1.32l-12,27.12a79.92,79.92,0,0,0,9.12-5.88,64.91,64.91,0,0,0,8.28-7.56,2.38,2.38,0,0,1,4.08,1.56,3,3,0,0,1-.72,1.68,72.06,72.06,0,0,1-9.12,8.28,123.54,123.54,0,0,1-14.88,9.24c-3.72,8.64-6.72,15.6-9.36,21.12-1.92,4.08-4.56,9.48-7.68,13-1.92,2-4.08,3.48-6.36,3.48C450.8,286.9,448.76,282.82,448.76,278.5Zm21.12-20.16,2-4.68c-8,5.28-12.84,10.68-15.6,15.48a19.58,19.58,0,0,0-2.88,9.24c0,1.8.48,3.72,2,3.72,1.2,0,2.52-1,3.84-2.64,1.92-2.4,3.84-6.24,6-10.8C466.88,265.42,468.32,261.94,469.88,258.34Zm17.4-42.72c-4.44,0-12,1.8-20.16,11.28-4.68,5.28-6.72,10.44-6.72,14.16,0,2.64,1.32,4.32,3.6,4.32a8.32,8.32,0,0,0,2.4-.36c8.4-3.12,17.52-19.08,22.32-29.4Z" transform="translate(-35.87 -22.2)"/><path class="cls-1" d="M520.88,247.06a3.08,3.08,0,0,1,.6-1.44l18.6-22.56c6.24-7.56,15.12-12.48,23.28-12.48a17.36,17.36,0,0,1,7,1.32c.6.36,1.56,1,1.56,1.8a3.76,3.76,0,0,1-.36,1.2,149.78,149.78,0,0,1-9.36,18c-1.44,3.72-2.4,7.44-2.4,9.6,0,1.68.84,3.12,2.28,3.12,1.8,0,5.4-3.12,9.12-6.72,4.08-4,8-8.64,9.59-10.32a2,2,0,0,1,1.8-.84,2.46,2.46,0,0,1,2.28,2.4,3,3,0,0,1-.72,1.68c-3.84,4.2-7.19,7.68-10.07,10.56-5.16,5-9,7.92-12,7.92-4.8,0-7-3.84-7-7.8-3.6,4.08-8.28,7.8-13.56,7.8-5.76,0-8.64-4.32-8.64-9.84a6.84,6.84,0,0,1,.12-1.56l-8.16,9.72a2.59,2.59,0,0,1-1.68.72A2.36,2.36,0,0,1,520.88,247.06Zm16.68-6.48c0,2.64,1.32,5,3.84,5,6.36,0,13.32-9.24,16.56-14.76a137.28,137.28,0,0,1,7.8-15.36,16.33,16.33,0,0,0-2.52-.24C550.52,215.26,537.56,230.14,537.56,240.58Z" transform="translate(-35.87 -22.2)"/><path class="cls-1" d="M580,230.26a2.37,2.37,0,0,1,.72-1.68A69.19,69.19,0,0,0,590,216.46h-4.44a2.41,2.41,0,0,1-2.4-2.4,2.31,2.31,0,0,1,2.4-2.28h7s1.32-2.64,1.8-3.84c4.92-12.6,6.48-15.6,6.48-15.6A2.37,2.37,0,0,1,603,190.9a2.2,2.2,0,0,1,2.28,2.28,3.87,3.87,0,0,1-.24,1.44l-7.2,17.16h11a2.31,2.31,0,0,1,2.4,2.28,2.41,2.41,0,0,1-2.4,2.4H596c-2.76,7.08-6.6,18.12-6.6,24.24,0,1.92.48,4.8,2.4,4.8,1.56,0,4.44-2.28,7.92-5.52s7.44-7.56,10.8-11.4a2.37,2.37,0,0,1,1.68-.72,2.47,2.47,0,0,1,2.4,2.28,3,3,0,0,1-.72,1.68,131.11,131.11,0,0,1-11.28,12.12c-3.84,3.48-7.8,6.24-10.8,6.24-4.92,0-7-4.8-7-9.36a45.45,45.45,0,0,1,1.92-11.88l-2.64,2.88a2.37,2.37,0,0,1-1.68.72A2.31,2.31,0,0,1,580,230.26Z" transform="translate(-35.87 -22.2)"/><path class="cls-1" d="M629.47,280.66a6.09,6.09,0,0,1,.24-1.08l23-54L634.27,248c-1.68,2.16-2.88,2.28-3,2.28A2.14,2.14,0,0,1,629,248a5.44,5.44,0,0,1,1.32-2.28l28.08-33.6c1.2-1.44,1.68-1.68,2.28-1.68a2.33,2.33,0,0,1,2.4,2.4c0,.24-.6,1.44-1.2,2.88-1.32,3-.6,1.68-2.4,6a50.29,50.29,0,0,1,7.08-6.6c4-3,7-4.08,9-4.08,4.68,0,6.6,4.08,6.6,8.4,0,7-4.2,16.44-10.08,22.92A29.35,29.35,0,0,1,668,246.1a23.78,23.78,0,0,0,5.88-2.76c4.8-3.12,10.08-9.24,15.12-14.76a2.59,2.59,0,0,1,1.68-.72,2.29,2.29,0,0,1,2.28,2.4,3.54,3.54,0,0,1-.6,1.56c-5.52,6.48-10.56,12-15.84,15.36A26.06,26.06,0,0,1,662,251.5a32.56,32.56,0,0,1-10.8-1.8,2.9,2.9,0,0,1-1.56-2.16,2.58,2.58,0,0,1,2.4-2.4,7,7,0,0,1,1.92.6,4.31,4.31,0,0,0,1.32.24c5.88,0,10.44-3.6,13.32-6.84,5.76-6.24,8.88-14.52,8.88-19.68,0-1.68-.48-3.72-2-3.72-1.08,0-3,.6-6.12,3.12-6.6,5.28-14,14.64-18.36,23l-17,39.6a2.31,2.31,0,0,1-2.16,1.44A2.21,2.21,0,0,1,629.47,280.66Z" transform="translate(-35.87 -22.2)"/><path class="cls-1" d="M699.79,244.54c0-3.84,3.72-10.08,6-13.8.12-.24,3.12-5.4,4.44-7.92a6.77,6.77,0,0,0,.72-2.4c0-.24-.12-.36-.84-.36h-2.52c-1.56,0-3-.24-4-1.56-3.12,3.84-7.32,9-11.28,13.32a2.18,2.18,0,0,1-1.68.72,2.14,2.14,0,0,1-2.28-2.28,2.31,2.31,0,0,1,.48-1.44c3.6-4.08,9-10.44,12.24-14.4,3-3.72,3-4,3.72-4.68a3.11,3.11,0,0,1,2-1.08,2.21,2.21,0,0,1,2.4,2.16,4.19,4.19,0,0,1-.72,2.16,5.79,5.79,0,0,0-1,2.16c0,.36.48.36.72.36.6,0,1.68-.12,2.52-.12a4.62,4.62,0,0,1,4.8,4.56c0,3.12-3.6,9.36-6.24,13.92-2.28,3.84-4.92,8.28-4.92,10.68a1,1,0,0,0,1.08,1.08,2.28,2.28,0,0,0,1.08-.36c4.2-3.12,8.64-7.8,12.36-11.88,1.68-1.8,3.12-3.48,4.44-4.8a2.34,2.34,0,1,1,3.36,3.24l-1.8,1.92c-4.2,4.56-10.68,12-15.72,15.48a6.74,6.74,0,0,1-3.72,1.08A5.69,5.69,0,0,1,699.79,244.54Z" transform="translate(-35.87 -22.2)"/><path class="cls-1" d="M720.91,239.5c0-10.44,9.84-28.32,20.88-28.32,4.2,0,7,2.4,7,6.24,0,2.4-1.44,5-4.08,7.56-3.6,3.36-9.72,6.6-18.12,8.52a23.94,23.94,0,0,0-1,6.24c0,3.6,1.56,6,5,6,2.52,0,6.24-1.32,10.44-4.08a76.36,76.36,0,0,0,14.76-13.08,2.65,2.65,0,0,1,1.8-.72,2.26,2.26,0,0,1,2.16,2.4,3.54,3.54,0,0,1-.6,1.56,76,76,0,0,1-16,14.16c-4.56,2.88-8.76,4.44-12.36,4.44C723.67,250.42,720.91,245.26,720.91,239.5Zm7.68-11.4c6.48-1.68,10.68-4,13-6.24,1.8-1.68,2.52-3.36,2.52-4.56s-1.44-1.44-2.28-1.44C736.39,215.86,731.11,222.94,728.59,228.1Z" transform="translate(-35.87 -22.2)"/><path class="cls-1" d="M744.91,243.22a2.46,2.46,0,0,1-.6-1.68,2.55,2.55,0,0,1,.84-1.8,142.06,142.06,0,0,0,11.16-11.64,167.76,167.76,0,0,0,11.64-16c.6-.84,1.92-2.64,3.48-2.64a2.36,2.36,0,0,1,2.16,2.4c0,.84-1,1.92-1.8,3a13.68,13.68,0,0,0-.6,4.92c0,2.76.12,5.28.36,7.8.12,2.28.36,4.56.36,6.84a30.73,30.73,0,0,1-1,8.28,76.53,76.53,0,0,0,8.28-6.6c2.76-2.52,5.28-5.16,7.44-7.56a2.59,2.59,0,0,1,1.68-.72,2.2,2.2,0,0,1,2.28,2.28,2.6,2.6,0,0,1-.6,1.68,91.7,91.7,0,0,1-12.48,12c-5.64,4.32-11.76,7.44-17.76,7.44C753.55,251.26,748.39,247.9,744.91,243.22Zm4.92-1.32a13.28,13.28,0,0,0,10.44,4.56c5.4,0,7-5.16,7-11.76,0-2.76-.24-5.4-.48-7.92-.12-1.44-.24-3.48-.24-4.2-1.92,2.64-4.44,5.76-7.32,9.24Q755.23,236.5,749.83,241.9Z" transform="translate(-35.87 -22.2)"/><path class="cls-1" d="M784,239.5c0-10.44,9.84-28.32,20.88-28.32,4.2,0,7,2.4,7,6.24,0,2.4-1.44,5-4.08,7.56-3.6,3.36-9.72,6.6-18.12,8.52a23.94,23.94,0,0,0-1,6.24c0,3.6,1.56,6,5,6,2.52,0,6.24-1.32,10.44-4.08A76.36,76.36,0,0,0,819,228.58a2.65,2.65,0,0,1,1.8-.72,2.26,2.26,0,0,1,2.16,2.4,3.54,3.54,0,0,1-.6,1.56,76,76,0,0,1-16,14.16c-4.56,2.88-8.76,4.44-12.36,4.44C786.79,250.42,784,245.26,784,239.5Zm7.68-11.4c6.48-1.68,10.68-4,13-6.24,1.8-1.68,2.52-3.36,2.52-4.56s-1.44-1.44-2.28-1.44C799.51,215.86,794.23,222.94,791.71,228.1Z" transform="translate(-35.87 -22.2)"/><path class="cls-1" d="M827.11,247.3a4.35,4.35,0,0,1,.72-2.16,172.55,172.55,0,0,0,9-19.56c1.32-3.72,2.28-6.72,2.28-8.64,0-.6-.12-1.2-.48-1.2a5.46,5.46,0,0,0-2.52,1.2,62.25,62.25,0,0,0-6.84,7l-6.84,7.8a2.32,2.32,0,0,1-1.8.84,2.39,2.39,0,0,1-2.4-2.28,3,3,0,0,1,.72-1.68c1.8-2.16,4.32-5,6.84-7.8a76.76,76.76,0,0,1,7.56-7.68,9.47,9.47,0,0,1,5.28-2c3.48,0,5.28,3.24,5.28,6a21.26,21.26,0,0,1-1.08,5.76c5.76-6.72,12-11.52,18.36-11.52,3.36,0,5.88,1.92,5.88,5.16,0,4.68-3.6,12.36-5.28,15.72-2.16,4.2-4.68,9.84-4.68,12.48,0,.48.24.72.6.72,1.68,0,4.2-1.68,7.08-4.32,3.72-3.36,8-8,12-12.48a2.69,2.69,0,0,1,1.68-.72,2.17,2.17,0,0,1,2.28,2.4,3.54,3.54,0,0,1-.6,1.56c-4.2,4.68-9.12,10.2-13.8,13.92-3.24,2.64-6.24,4.32-8.76,4.32a5,5,0,0,1-5.16-5.16c0-3.12,2.52-8.88,5.16-14.64,2-4.44,4.8-10.56,4.8-13.2,0-1-.48-1.08-1.2-1.08-5.28,0-11.4,5.64-16.32,11.76a143.9,143.9,0,0,0-11.28,17.52l-1.8,3.24a2.45,2.45,0,0,1-2.28,1.2A2.15,2.15,0,0,1,827.11,247.3Z" transform="translate(-35.87 -22.2)"/><path class="cls-1" d="M876,230.26a2.37,2.37,0,0,1,.72-1.68,69.19,69.19,0,0,0,9.24-12.12h-4.44a2.41,2.41,0,0,1-2.4-2.4,2.31,2.31,0,0,1,2.4-2.28h7s1.32-2.64,1.8-3.84c4.92-12.6,6.48-15.6,6.48-15.6a2.37,2.37,0,0,1,2.16-1.44,2.2,2.2,0,0,1,2.28,2.28,3.87,3.87,0,0,1-.24,1.44l-7.2,17.16h11a2.31,2.31,0,0,1,2.4,2.28,2.41,2.41,0,0,1-2.4,2.4H891.91c-2.76,7.08-6.6,18.12-6.6,24.24,0,1.92.48,4.8,2.4,4.8,1.56,0,4.44-2.28,7.92-5.52s7.44-7.56,10.8-11.4a2.37,2.37,0,0,1,1.68-.72,2.47,2.47,0,0,1,2.4,2.28,3,3,0,0,1-.72,1.68,131.11,131.11,0,0,1-11.28,12.12c-3.84,3.48-7.8,6.24-10.8,6.24-4.92,0-7-4.8-7-9.36a45.45,45.45,0,0,1,1.92-11.88L880,231.82a2.37,2.37,0,0,1-1.68.72A2.31,2.31,0,0,1,876,230.26Z" transform="translate(-35.87 -22.2)"/><path class="cls-1" d="M944.23,248.26a3.28,3.28,0,0,1-3.36-3.36,3.35,3.35,0,0,1,3.36-3.36,3.43,3.43,0,0,1,3.36,3.36A3.35,3.35,0,0,1,944.23,248.26Zm5.52-23.52a2.82,2.82,0,0,1,.24-1L971.34,174a2.34,2.34,0,0,1,2-1.44,2.38,2.38,0,0,1,2.4,2.28,2.82,2.82,0,0,1-.24,1l-21.35,49.8A2.66,2.66,0,0,1,952,227,2.13,2.13,0,0,1,949.75,224.74Z" transform="translate(-35.87 -22.2)"/><path class="cls-1" d="M973.74,248.26a3.28,3.28,0,0,1-3.36-3.36,3.35,3.35,0,0,1,3.36-3.36,3.43,3.43,0,0,1,3.36,3.36A3.35,3.35,0,0,1,973.74,248.26Zm5.52-23.52a2.82,2.82,0,0,1,.24-1l21.36-49.8a2.34,2.34,0,0,1,2-1.44,2.38,2.38,0,0,1,2.4,2.28,2.82,2.82,0,0,1-.24,1l-21.36,49.8a2.66,2.66,0,0,1-2.16,1.44A2.14,2.14,0,0,1,979.26,224.74Z" transform="translate(-35.87 -22.2)"/><path class="cls-1" d="M1003.26,248.26a3.28,3.28,0,0,1-3.36-3.36,3.35,3.35,0,0,1,3.36-3.36,3.43,3.43,0,0,1,3.36,3.36A3.35,3.35,0,0,1,1003.26,248.26Zm5.52-23.52a2.82,2.82,0,0,1,.24-1l21.36-49.8a2.34,2.34,0,0,1,2-1.44,2.38,2.38,0,0,1,2.4,2.28,2.82,2.82,0,0,1-.24,1l-21.36,49.8a2.66,2.66,0,0,1-2.16,1.44A2.14,2.14,0,0,1,1008.78,224.74Z" transform="translate(-35.87 -22.2)"/></svg>